<?xml version="1.0" encoding="UTF-8" standalone="no"?>
<svg width="236px" height="71px" viewBox="0 0 236 71" version="1.1" xmlns="http://www.w3.org/2000/svg" xmlns:xlink="http://www.w3.org/1999/xlink">
    <!-- Generator: Sketch 39 (31667) - http://www.bohemiancoding.com/sketch -->
    <title>spotifyLogo</title>
    <desc>Created with Sketch.</desc>
    <defs></defs>
    <g id="Page-1" stroke="none" stroke-width="1" fill="none" fill-rule="evenodd">
        <g id="Desktop-Copy" transform="translate(-387.000000, -448.000000)" fill="#191414">
            <g id="spotifyLogo" transform="translate(387.000000, 448.000000)">
                <g id="Layer_1">
                    <path d="M35.4616386,0.117065476 C15.9361216,0.117065476 0.106812165,15.9623214 0.106812165,35.5080298 C0.106812165,55.0558512 15.9361216,70.9002619 35.4616386,70.9002619 C54.988,70.9002619 70.8164651,55.0558512 70.8164651,35.5080298 C70.8164651,15.9635893 54.9888444,0.118755952 35.4612165,0.118755952 L35.4616386,0.117065476 Z M51.6751342,51.160994 C51.0401717,52.2035952 49.6832773,52.5302798 48.6451306,51.8950833 C40.3429123,46.815625 29.8930519,45.6682143 17.5864329,48.4824345 C16.4005224,48.7546012 15.2184114,48.010369 14.9482147,46.8236548 C14.6767513,45.6365179 15.4168372,44.4531845 16.605703,44.1827083 C30.0733238,41.1005476 41.6255027,42.4271488 50.9443363,48.1274345 C51.9829052,48.7655893 52.3122075,50.1221964 51.674712,51.1618393 L51.6751342,51.160994 Z M56.0025045,41.5257024 C55.2028909,42.8244107 53.5065617,43.2318155 52.2108837,42.4343333 C42.7096673,36.5878214 28.2216315,34.8943869 16.9810233,38.309994 C15.5232272,38.7507857 13.9835277,37.928369 13.5410805,36.4716012 C13.1020107,35.0122976 13.924,33.4739643 15.379263,33.0302143 C28.2190984,29.1302857 44.1809732,31.0193929 55.09439,37.7326964 C56.3904902,38.5314464 56.8000072,40.230375 56.0020823,41.526125 L56.0025045,41.5257024 Z M56.374025,31.4910357 C44.9776315,24.7160298 26.1795349,24.0930893 15.3003148,27.3983929 C13.5533238,27.9287798 11.7058533,26.9415417 11.1764365,25.192744 C10.6470197,23.4431012 11.6323936,21.5949881 13.3806512,21.0633333 C25.8692308,17.2682143 46.6300537,18.0014583 59.7489517,25.7975119 C61.3203148,26.7310774 61.8357996,28.7626071 60.9044651,30.3334821 C59.9756637,31.9064702 57.9407442,32.4250238 56.3744472,31.4910357 L56.374025,31.4910357 Z" id="Shape"></path>
                    <path d="M96.2955993,32.7893214 C90.191263,31.332131 89.1045653,30.3093929 89.1045653,28.160375 C89.1045653,26.1301131 91.0140966,24.7637857 93.8536959,24.7637857 C96.6063256,24.7637857 99.3357352,25.8013155 102.197288,27.9372321 C102.283835,28.0018929 102.392336,28.0276726 102.499148,28.0107679 C102.605961,27.9947083 102.70053,27.9359643 102.763013,27.8476369 L105.743621,23.6417321 C105.866054,23.4684583 105.832701,23.2296786 105.667628,23.0973988 C102.261882,20.3617857 98.4267764,19.0318036 93.9440429,19.0318036 C87.3529302,19.0318036 82.7490304,22.9913214 82.7490304,28.6565298 C82.7490304,34.7316786 86.7205009,36.8828095 93.5834991,38.5432798 C99.4248157,39.8901667 100.410612,41.0185595 100.410612,43.0357202 C100.410612,45.2709524 98.4170662,46.6605238 95.2089016,46.6605238 C91.6456816,46.6605238 88.7393775,45.4590179 85.4881503,42.6405714 C85.4075134,42.5708393 85.2969016,42.5391429 85.1947335,42.5450595 C85.0870769,42.5539345 84.9887084,42.6038036 84.9203148,42.6862143 L81.5783184,46.6677083 C81.4381538,46.8329524 81.4558855,47.0797619 81.6180036,47.2226071 C85.4007585,50.6031369 90.0532093,52.3887024 95.0738032,52.3887024 C102.176179,52.3887024 106.765725,48.5039881 106.765725,42.4913869 C106.77839,37.4157321 103.742898,34.6053155 96.3082648,32.7948155 L96.2955993,32.7893214 Z" id="Shape"></path>
                    <path d="M122.833989,26.7627738 C119.755435,26.7627738 117.230361,27.9765357 115.148157,30.4636488 L115.148157,27.6642202 C115.148157,27.4431905 114.969152,27.2631548 114.748773,27.2631548 L109.282776,27.2631548 C109.061975,27.2631548 108.883392,27.4431905 108.883392,27.6642202 L108.883392,58.7698274 C108.883392,58.9908571 109.061975,59.1708929 109.282776,59.1708929 L114.748773,59.1708929 C114.969152,59.1708929 115.148157,58.9908571 115.148157,58.7698274 L115.148157,48.951119 C117.230784,51.2907381 119.756279,52.4339226 122.833989,52.4339226 C128.55414,52.4339226 134.344794,48.026006 134.344794,39.5998274 C134.353238,31.1715357 128.560894,26.7623512 122.840322,26.7623512 L122.833989,26.7627738 Z M127.988837,39.5998274 C127.988837,43.8906786 125.348508,46.8849345 121.567864,46.8849345 C117.830283,46.8849345 115.010948,43.7545952 115.010948,39.5998274 C115.010948,35.4454821 117.830283,32.3147202 121.567864,32.3147202 C125.287292,32.3142976 127.989259,35.3774405 127.989259,39.5994048 L127.988837,39.5998274 Z" id="Shape"></path>
                    <path d="M149.186619,26.7627738 C141.819957,26.7627738 136.048723,32.4410833 136.048723,39.6915357 C136.048723,46.8629583 141.780272,52.4816786 149.096272,52.4816786 C156.489109,52.4816786 162.278075,46.8223869 162.278075,39.5998274 C162.278075,32.4022024 156.52795,26.763619 149.186197,26.763619 L149.186619,26.7627738 Z M149.186619,46.927619 C145.268343,46.927619 142.314333,43.7761488 142.314333,39.5977143 C142.314333,35.4015298 145.166175,32.3565595 149.096272,32.3565595 C153.039878,32.3565595 156.013732,35.5080298 156.013732,39.6894226 C156.013732,43.8847619 153.142891,46.927619 149.187041,46.927619 L149.186619,46.927619 Z" id="Shape"></path>
                    <path d="M178.009016,27.2631548 L171.994182,27.2631548 L171.994182,21.1072857 C171.994182,20.8866786 171.816021,20.7066429 171.59522,20.7066429 L166.130068,20.7066429 C165.908844,20.7066429 165.729417,20.8866786 165.729417,21.1072857 L165.729417,27.2631548 L163.101331,27.2631548 C162.881374,27.2631548 162.703213,27.4431905 162.703213,27.6642202 L162.703213,32.3667024 C162.703213,32.5873095 162.881374,32.7677679 163.101331,32.7677679 L165.729417,32.7677679 L165.729417,44.9353929 C165.729417,49.8525655 168.174275,52.3455952 172.996021,52.3455952 C174.956637,52.3455952 176.583306,51.9403036 178.11625,51.070131 C178.240794,51.0003988 178.318054,50.866006 178.318054,50.7231607 L178.318054,46.2450893 C178.318054,46.1068929 178.246283,45.9763036 178.128072,45.9040357 C178.009016,45.8292321 177.86083,45.8254286 177.738819,45.8858631 C176.685896,46.41625 175.668014,46.6609464 174.530233,46.6609464 C172.776487,46.6609464 171.994182,45.8638869 171.994182,44.0774762 L171.994182,32.769881 L178.009016,32.769881 C178.229818,32.769881 178.407556,32.5898452 178.407556,32.3688155 L178.407556,27.666756 C178.416,27.4457262 178.238683,27.2656905 178.014927,27.2656905 L178.009016,27.2631548 Z" id="Shape"></path>
                    <path d="M198.966154,27.287244 L198.966154,26.5311786 C198.966154,24.3069345 199.818118,23.3150476 201.728916,23.3150476 C202.868386,23.3150476 203.783678,23.5415714 204.808737,23.8838929 C204.93497,23.923619 205.066691,23.903756 205.169281,23.8281071 C205.274826,23.7524583 205.334354,23.6311667 205.334354,23.5026905 L205.334354,18.8919167 C205.334354,18.7156845 205.221209,18.5597381 205.051492,18.507756 C203.968594,18.1852976 202.582991,17.8543869 200.508386,17.8543869 C195.459928,17.8543869 192.791313,20.7003036 192.791313,26.0815119 L192.791313,27.2394881 L190.165338,27.2394881 C189.944959,27.2394881 189.764265,27.4195238 189.764265,27.640131 L189.764265,32.3667024 C189.764265,32.5873095 189.944959,32.7677679 190.165338,32.7677679 L192.791313,32.7677679 L192.791313,51.5358571 C192.791313,51.7568869 192.969474,51.9369226 193.189853,51.9369226 L198.65585,51.9369226 C198.876651,51.9369226 199.056501,51.7568869 199.056501,51.5358571 L199.056501,32.7690357 L204.159843,32.7690357 L211.977395,51.5324762 C211.089968,53.503994 210.217317,53.8961845 209.025918,53.8961845 C208.062919,53.8961845 207.048837,53.608381 206.011957,53.040381 C205.914433,52.9867083 205.798755,52.9778333 205.693631,53.010375 C205.589352,53.0471429 205.501538,53.1249048 205.457209,53.2263333 L203.604673,57.2948869 C203.516436,57.4871786 203.592007,57.7128571 203.776923,57.8125952 C205.710941,58.8611131 207.456665,59.3086667 209.61444,59.3086667 C213.650504,59.3086667 215.881317,57.426744 217.847843,52.3637679 L227.330483,27.8349583 C227.37819,27.7115536 227.363835,27.5720893 227.288265,27.462631 C227.213116,27.3540179 227.09195,27.2885119 226.959385,27.2885119 L221.269209,27.2885119 C221.098648,27.2885119 220.94624,27.397125 220.890512,27.5572976 L215.061438,44.2245476 L208.676773,27.5463095 C208.618512,27.3912083 208.469059,27.2885119 208.303564,27.2885119 L198.964887,27.2885119 L198.966154,27.287244 Z" id="Shape"></path>
                    <path d="M186.815742,27.2631548 L181.349746,27.2631548 C181.128945,27.2631548 180.949095,27.4431905 180.949095,27.6642202 L180.949095,51.5358571 C180.949095,51.7568869 181.128945,51.9369226 181.349746,51.9369226 L186.815742,51.9369226 C187.036122,51.9369226 187.216394,51.7568869 187.216394,51.5358571 L187.216394,27.6659107 C187.216394,27.444881 187.039077,27.2648452 186.81532,27.2648452 L186.815742,27.2631548 Z" id="Shape"></path>
                    <path d="M184.113775,16.3938155 C181.948401,16.3938155 180.191277,18.1485298 180.191277,20.3161429 C180.191277,22.4850238 181.948823,24.2418512 184.113775,24.2418512 C186.278304,24.2418512 188.033739,22.4850238 188.033739,20.3161429 C188.033739,18.1489524 186.27746,16.3938155 184.115886,16.3938155 L184.113775,16.3938155 Z" id="Shape"></path>
                    <path d="M231.99771,34.9383393 C229.834447,34.9383393 228.151206,33.1992619 228.151206,31.0874345 C228.151206,28.9756071 229.856401,27.2166667 232.017975,27.2166667 C234.181238,27.2166667 235.864479,28.9553214 235.864479,31.0654583 C235.864479,33.1772857 234.158862,34.9383393 231.997288,34.9383393 L231.99771,34.9383393 Z M232.018819,27.5995595 C230.048494,27.5995595 228.557767,29.1674762 228.557767,31.0874345 C228.557767,33.0065476 230.037939,34.5533333 231.998977,34.5533333 C233.96888,34.5533333 235.461295,32.9866845 235.461295,31.0654583 C235.461295,29.1463452 233.979435,27.5995595 232.020508,27.5995595 L232.018819,27.5995595 Z M232.871628,31.4614524 L233.959592,32.9862619 L233.04219,32.9862619 L232.062726,31.5873929 L231.220472,31.5873929 L231.220472,32.9862619 L230.452522,32.9862619 L230.452522,28.9443333 L232.253131,28.9443333 C233.19122,28.9443333 233.808029,29.4248512 233.808029,30.233744 C233.81225,30.8964107 233.428064,31.3012798 232.875005,31.4614524 L232.871628,31.4614524 Z M232.221467,29.6378512 L231.22005,29.6378512 L231.22005,30.9162738 L232.221467,30.9162738 C232.721331,30.9162738 233.019814,30.6715774 233.019814,30.2764286 C233.019814,29.8605714 232.720064,29.6378512 232.221889,29.6378512 L232.221467,29.6378512 Z" id="Shape"></path>
                </g>
            </g>
        </g>
    </g>
</svg>